<?xml version="1.0" encoding="UTF-8"?>
<svg width="17px" height="10px" viewBox="0 0 17 10" version="1.1" xmlns="http://www.w3.org/2000/svg" xmlns:xlink="http://www.w3.org/1999/xlink">
    <title>0004</title>
    <g id="Manufacturing-web-design" stroke="none" stroke-width="1" fill="none" fill-rule="evenodd">
        <g id="CVPR-Workshop_website_app(0112)-3" transform="translate(-10.000000, -447.000000)" fill="#000000" fill-rule="nonzero">
            <g id="0004" transform="translate(10.000000, 447.000000)">
                <rect id="矩形" opacity="0" x="0" y="0" width="16.2207" height="9.99023"></rect>
                <path d="M8.11523,9.99023 C8.25195,9.99023 8.38216,9.96256333 8.50586,9.90723 C8.62956,9.85189 8.74023667,9.76888 8.83789,9.6582 L15.9375,2.41211 C16.1263,2.21679667 16.2207,1.98893333 16.2207,1.72852 C16.2207,1.54622667 16.1784,1.38183667 16.0938,1.23535 C16.0091333,1.08886333 15.8935667,0.973304 15.7471,0.888672 C15.6005667,0.804036667 15.4361667,0.761719 15.2539,0.761719 C14.9935,0.761719 14.7591333,0.856119333 14.5508,1.04492 L7.63672,8.13477 L8.58398,8.13477 L1.66016,1.04492 C1.46484667,0.856119333 1.23372567,0.761719 0.966797,0.761719 C0.784505,0.761719 0.620117,0.804036667 0.473633,0.888672 C0.327148333,0.973304 0.211588333,1.08886333 0.126953,1.23535 C0.0423176667,1.38183667 0,1.54622667 0,1.72852 C0,1.86523333 0.0260416667,1.99055667 0.078125,2.10449 C0.130208333,2.21842333 0.198567667,2.32096333 0.283203,2.41211 L7.37305,9.66797 C7.59440333,9.88281 7.84179667,9.99023 8.11523,9.99023 Z" id="路径" fill-opacity="0.850000024"></path>
            </g>
        </g>
    </g>
</svg>