<?xml version="1.0" encoding="UTF-8"?>
<svg width="19.3798828px" height="15.8815384px" viewBox="0 0 19.3798828 15.8815384" version="1.1" xmlns="http://www.w3.org/2000/svg" xmlns:xlink="http://www.w3.org/1999/xlink">
    <title>􀄫</title>
    <g id="人物更新" stroke="none" stroke-width="1" fill="none" fill-rule="evenodd">
        <g id="ECCV-Workshop_0603" transform="translate(-1147.1147, -3838.0325)" fill="#934FE3" fill-rule="nonzero">
            <g id="编组-29备份-2" transform="translate(237.5, 3753.3888)">
                <g id="编组-9" transform="translate(796, 80)">
                    <g id="􀄫" transform="translate(113.6147, 4.6437)">
                        <path d="M19.3798828,7.94181061 C19.3798828,7.61806488 19.2598267,7.33891296 19.0197144,7.10435486 L12.2663956,0.369781494 C12.1395035,0.241607666 12.007431,0.14793396 11.8701782,0.088760376 C11.7329254,0.029586792 11.5921478,0 11.4478455,0 C11.1271973,0 10.8635597,0.102565765 10.6569328,0.307697296 C10.4503059,0.512828827 10.3469925,0.76877594 10.3469925,1.07553864 C10.3469925,1.23490143 10.3756447,1.38259506 10.4329491,1.51861954 C10.4902534,1.65464401 10.5706024,1.77307129 10.673996,1.87390137 L12.970871,4.20041656 L16.7934952,7.69619751 L17.1527023,7.02745056 L13.6010056,6.81852722 L1.1354599,6.81852722 C0.797401428,6.81852722 0.523643494,6.92277527 0.314186096,7.13127136 C0.104728699,7.33976746 0,7.6099472 0,7.94181061 C0,8.2735672 0.104728699,8.54369354 0.314186096,8.75218964 C0.523643494,8.96068573 0.797401428,9.06493378 1.1354599,9.06493378 L13.6010056,9.06493378 L17.1527023,8.85601044 L16.7934952,8.1975174 L12.970871,11.6830444 L10.673996,14.0077972 C10.5706024,14.1086273 10.4902534,14.2270279 10.4329491,14.362999 C10.3756447,14.49897 10.3469925,14.646637 10.3469925,14.8059998 C10.3469925,15.1128693 10.4503059,15.3688431 10.6569328,15.5739212 C10.8635597,15.7789993 11.1271973,15.8815384 11.4478455,15.8815384 C11.7427521,15.8815384 12.0100479,15.7638855 12.249733,15.5285797 L19.0197144,8.77910614 C19.2598267,8.54454803 19.3798828,8.26544952 19.3798828,7.94181061 Z" id="路径"></path>
                    </g>
                </g>
            </g>
        </g>
    </g>
</svg>