<?xml version="1.0" encoding="UTF-8"?>
<svg width="213.720009px" height="74.5538142px" viewBox="0 0 213.720009 74.5538142" version="1.1" xmlns="http://www.w3.org/2000/svg" xmlns:xlink="http://www.w3.org/1999/xlink">
    <title>citymark</title>
    <g id="页面-2" stroke="none" stroke-width="1" fill="none" fill-rule="evenodd">
        <g id="ECCV-Workshop_0428" transform="translate(-245.6055, -193.6498)" fill="#FFFFFF" fill-rule="nonzero">
            <g id="编组" transform="translate(235.9344, 192.9158)">
                <path d="M223.38871,70.3079291 L223.222335,70.3079291 L223.222335,65.954959 L221.370824,65.954959 L221.370824,51.6564142 L218.90848,51.6564142 L218.90848,29.9723065 L212.909489,29.9723065 L212.909489,49.1937683 L209.677069,49.1937683 L209.677069,38.5856302 L202.748757,38.5856302 L202.748757,55.0357249 L197.522219,55.0357249 L197.522219,50.0510636 L197.027849,50.0510636 L196.390872,43.5227959 L195.815691,50.0486888 L194.677214,50.0486888 L194.03786,43.5227959 L193.462679,50.0486888 L192.897006,50.0486888 L192.897006,50.0629375 L188.70912,46.6290069 L188.70912,44.5653239 L188.126809,44.5653239 L187.482702,37.9349408 L186.893261,44.5653239 L186.546251,44.5653239 L186.546251,44.855047 L182.211005,41.3047523 L182.211005,39.3716821 L182.156339,39.3716821 L181.488464,32.5156949 L180.882386,39.3716821 L179.848487,39.3716821 L179.798574,39.3265613 L179.133076,32.5133201 L178.617315,38.3576514 L175.094928,35.4699201 L171.56541,38.3647758 L170.994983,32.5133201 L170.388904,39.3241865 L170.338992,39.3716821 L169.3146,39.3716821 L168.644348,32.5156949 L168.009748,39.7183998 L168.054907,39.7183998 L168.054907,41.243008 L163.726792,44.7933027 L163.726792,44.5676987 L163.180132,44.5676987 L162.531271,37.9373155 L161.946584,44.5676987 L161.563922,44.5676987 L161.563922,46.5696375 L157.311864,50.0534384 L156.974361,50.0534384 L156.332631,43.5275455 L155.75745,50.0534384 L154.623726,50.0534384 L154.084197,44.5676987 L154.084197,25.6692069 L152.467987,25.6692069 L152.467987,23.6720177 L146.925338,23.6720177 L146.925338,25.6692069 L145.306751,25.6692069 L145.306751,59.9586419 L141.347036,59.9586419 L141.347036,36.4317056 L134.727705,36.4317056 L134.727705,29.0508923 L132.726457,29.0508923 L132.726457,23.0545751 L132.267739,23.0545751 L132.267739,29.0508923 L130.420981,29.0508923 L130.420981,55.5011816 L123.497422,55.5011816 L123.497422,44.8882939 L116.264883,44.8882939 L116.264883,57.5767385 L109.067994,57.5767385 L109.067994,38.4312696 L102.03035,38.4312696 L102.03035,32.0882347 L99.9506683,32.5204445 L99.9506683,21.5917112 L99.1877221,22.7719764 L99.1877221,15.918364 L98.8716104,15.1821825 L98.6553235,0.734026618 L98.5626291,0.734026618 L98.3653564,13.9971677 L98.0611286,13.2894836 L98.0611286,24.5079399 L97.7569009,24.9757714 L97.7569009,32.9787768 L89.5641421,34.6814934 L89.5641421,36.932784 L84.596673,36.932784 L84.596673,52.8865498 L83.1777356,51.4664319 L79.068284,55.5700501 L79.7884481,55.5700501 L79.7884481,58.5147762 L64.0731823,52.7915586 L47.4333493,58.8519948 L47.4333493,53.7723424 L41.315519,53.7723424 L41.315519,38.383774 L42.0356832,38.383774 L37.9309851,34.2801558 L33.8239102,38.383774 L34.5440743,38.383774 L34.5440743,47.9707571 L15.3991158,47.9707571 L15.3991158,58.9588599 L12.4614164,58.9588599 L12.4614164,64.2641163 L9.69009151,64.2641163 L9.69009151,70.3126786 L9.67107727,70.3126786 L9.67820761,75.2878408 L223.391086,75.2878408 L223.38871,70.3079291 L223.38871,70.3079291 Z M25.2080846,56.0307573 C27.057219,56.0307573 28.5617204,57.5316177 28.5617204,59.3791958 L28.5617204,70.3079291 L21.852072,70.3079291 L21.852072,59.3791958 C21.852072,57.5316177 23.3565734,56.0307573 25.2080846,56.0307573 Z" id="citymark"></path>
            </g>
        </g>
    </g>
</svg>