<?xml version="1.0" encoding="UTF-8"?>
<svg width="23px" height="22px" viewBox="0 0 23 22" version="1.1" xmlns="http://www.w3.org/2000/svg" xmlns:xlink="http://www.w3.org/1999/xlink">
    <title>broadcast_1</title>
    <g id="页面-2" stroke="none" stroke-width="1" fill="none" fill-rule="evenodd">
        <g id="ECCV-Workshop_0428" transform="translate(-731, -3372)" fill="#934FE3" fill-rule="nonzero">
            <g id="编组-15" transform="translate(222, 2681.5)">
                <g id="broadcast_1" transform="translate(509, 690.5)">
                    <path d="M7.10542736e-15,7.42469429 C7.10542736e-15,7.00080396 0.15072618,6.64212753 0.452178539,6.34866501 C0.753630898,6.05520249 1.11618846,5.9084712 1.53985122,5.9084712 L3.07970244,5.9084712 L3.07970244,12.7803855 L1.53985122,12.7803855 C1.11618844,12.7803855 0.753630882,12.6336542 0.452178539,12.3401917 C0.150726195,12.0467291 7.10542736e-15,11.6880527 7.10542736e-15,11.2641624 L7.10542736e-15,7.42469429 L7.10542736e-15,7.42469429 Z M17.109458,1.11524989 C17.8101311,0.446807455 18.4456252,0.0799792957 19.0159405,0.0147654074 C19.5862558,-0.0504484809 20.0913921,0.100358655 20.5313496,0.467186814 C20.9713071,0.834014974 21.3460857,1.37202961 21.6556854,2.08123073 C21.9652852,2.79043185 22.2178533,3.58115033 22.41339,4.45338617 C22.6089267,5.32562202 22.7555792,6.23861656 22.8533475,7.19236979 C22.9511159,8.14612303 23,9.0550417 23,9.91912581 C23,10.7832099 22.9388948,11.647294 22.8166844,12.5113782 C22.694474,13.3754623 22.515232,14.1865601 22.2789586,14.9446716 C22.0426851,15.7027832 21.7656748,16.3671497 21.4479277,16.9377713 C21.1301807,17.5083929 20.7757705,17.9322833 20.3846971,18.2094423 C19.9936238,18.4866013 19.5740347,18.5844222 19.1259299,18.5029048 C18.677825,18.4213875 18.2093518,18.1034697 17.7205101,17.5491516 C17.2479632,16.9948335 16.6083953,16.5342604 15.8018066,16.1674322 C14.9952179,15.800604 14.1153029,15.490838 13.1620617,15.2381342 C12.2088204,14.9854303 11.2433582,14.7816369 10.2656748,14.6267539 C9.28799152,14.4718709 8.39178182,14.3332914 7.57704573,14.2110153 C6.76230964,14.0887393 6.08200499,13.9705391 5.5361318,13.8564148 C4.9902586,13.7422904 4.68473256,13.6037109 4.61955368,13.4406762 L4.61955368,5.78619519 C4.68473256,5.55794656 4.94137444,5.37045661 5.38947931,5.22372535 C5.83758417,5.07699409 6.40789944,4.93841457 7.10042512,4.80798677 C7.79295079,4.67755898 8.57509744,4.53490359 9.44686507,4.38002059 C10.3186327,4.2251376 11.206695,4.01319243 12.1110521,3.7441851 C13.0154092,3.47517776 13.8993978,3.13280481 14.7630181,2.71706625 C15.6266384,2.30132768 16.408785,1.76738891 17.1094581,1.11524993 L17.109458,1.11524989 Z M8.31030817,16.1062942 C8.39178178,16.3019358 8.48955011,16.513881 8.60361315,16.7421297 C8.70138148,16.9540748 8.83173926,17.1986269 8.99468648,17.475786 C9.15763371,17.752945 9.35317037,18.0545593 9.58129648,18.3806288 C9.85830674,18.7719122 10.1393907,19.1835749 10.4245483,19.6156169 C10.709706,20.047659 10.9256111,20.4389424 11.0722635,20.7894671 C11.218916,21.1399918 11.2637265,21.4293784 11.206695,21.6576271 C11.1496635,21.8858757 10.9174637,22 10.5100957,22 L9.11689692,22 C8.79100249,22 8.48955013,21.938862 8.21253985,21.8165859 C7.93552956,21.6943099 7.67074033,21.5068199 7.41817215,21.2541161 C7.16560397,21.0014122 6.90488842,20.6794186 6.63602549,20.2881353 C6.36716256,19.8968519 6.07793125,19.4322029 5.76833155,18.8941882 C5.39355295,18.2746562 5.1328374,17.7325657 4.98618489,17.2679167 C4.83953238,16.8032677 4.74176405,16.4160602 4.69287991,16.1062942 C4.62770103,15.7476178 4.62770103,15.4378518 4.69287991,15.1769962 C4.82323768,15.1932997 4.97803754,15.2259066 5.15727948,15.274817 C5.30393197,15.307424 5.48317391,15.3481827 5.6950053,15.3970931 C5.90683669,15.4460035 6.15125752,15.4949139 6.42826779,15.5438243 C6.70527806,15.6090382 6.95377257,15.6701763 7.17375131,15.7272384 C7.39373006,15.7843006 7.5933404,15.8454386 7.77258235,15.9106525 C7.968119,15.9758664 8.14736094,16.0410803 8.31030817,16.1062942 L8.31030817,16.1062942 Z" id="形状"></path>
                </g>
            </g>
        </g>
    </g>
</svg>