<?xml version="1.0" encoding="UTF-8"?>
<svg width="37px" height="37px" viewBox="0 0 37 37" version="1.1" xmlns="http://www.w3.org/2000/svg" xmlns:xlink="http://www.w3.org/1999/xlink">
    <title>icon-4</title>
    <g id="页面-2" stroke="none" stroke-width="1" fill="none" fill-rule="evenodd">
        <g id="ECCV-Workshop_0428" transform="translate(-896, -7269.27)" fill="#934FE3" fill-rule="nonzero">
            <g id="icon-4" transform="translate(896, 7269.27)">
                <path d="M18.4909447,37 C28.6147822,37 37,28.5966716 37,18.4909447 C37,8.38521782 28.5966716,0 18.4728341,0 C8.3671072,0 0,8.38521782 0,18.4909447 C0,28.5966716 8.38521782,37 18.4909447,37 Z M18.5090553,19.4689183 C18.2011747,19.4689183 17.8570729,19.3602545 17.4767499,19.0161527 L9.34508076,10.866373 C9.58051884,10.6852668 10.1238375,10.5222712 10.9025942,10.5222712 L26.1155164,10.5222712 C26.8761625,10.5222712 27.4194812,10.6852668 27.6549192,10.866373 L19.5232501,19.0161527 C19.1791483,19.3602545 18.8350465,19.4689183 18.5090553,19.4689183 Z M14.8507097,18.5090553 L8.4576603,24.9202154 C8.33088595,24.6847773 8.27655409,24.2501224 8.27655409,23.5800294 L8.27655409,13.40186 C8.27655409,12.731767 8.33088595,12.2971121 8.43954968,12.0978953 L14.8507097,18.5090553 Z M22.0949584,18.5090553 L28.5242291,12.0978953 C28.6328928,12.2971121 28.6872247,12.731767 28.6872247,13.40186 L28.6872247,23.5800294 C28.6872247,24.2501224 28.6328928,24.6847773 28.5061185,24.9202154 L22.0949584,18.5090553 Z M18.4909447,20.9539892 C19.1610377,20.9539892 19.6862457,20.7185512 20.39256,20.0665688 L20.9902105,19.5232501 L27.6005874,26.133627 C27.3832599,26.3328439 26.8580519,26.4596182 26.0974058,26.4596182 L10.9025942,26.4596182 C10.1238375,26.4596182 9.61674009,26.3328439 9.39941263,26.133627 L16.0097895,19.5232501 L16.5893294,20.0665688 C17.3137543,20.7185512 17.8208517,20.9539892 18.4909447,20.9539892 Z" id="形状"></path>
            </g>
        </g>
    </g>
</svg>