<?xml version="1.0" encoding="UTF-8"?>
<svg width="37px" height="37px" viewBox="0 0 37 37" version="1.1" xmlns="http://www.w3.org/2000/svg" xmlns:xlink="http://www.w3.org/1999/xlink">
    <title>icon-5</title>
    <g id="页面-2" stroke="none" stroke-width="1" fill="none" fill-rule="evenodd">
        <g id="ECCV-Workshop_0428" transform="translate(-751, -7269.27)" fill-rule="nonzero">
            <g id="􀍘" transform="translate(751, 7269.27)">
                <path d="M18.4909447,37 C28.6147822,37 37,28.5966716 37,18.4909447 C37,8.38521782 28.5966716,0 18.4728341,0 C8.3671072,0 0,8.38521782 0,18.4909447 C0,28.5966716 8.38521782,37 18.4909447,37 Z" id="路径" fill="#934FE3"></path>
                <path d="M23.5673828,18.6640625 C25.4570312,18.6640625 27.0830078,16.9765625 27.0830078,14.7792969 C27.0830078,12.6083984 25.4482422,11 23.5673828,11 C21.6865234,11 20.0429688,12.6435547 20.0517227,14.796875 C20.0517227,16.9765625 21.6777344,18.6640625 23.5673828,18.6640625 Z M13.4511719,18.8662109 C15.0947266,18.8662109 16.5097656,17.3896484 16.5097656,15.4824219 C16.5097656,13.5927734 15.0859375,12.1953125 13.4511719,12.1953125 C11.8164062,12.1953125 10.375,13.6279297 10.3837491,15.5 C10.3837491,17.3896484 11.8076172,18.8662109 13.4511719,18.8662109 Z M8.55566406,26.8027344 L15.2177734,26.8027344 C14.3037109,25.4755859 15.4111328,22.8125 17.3183594,21.3447266 C16.3339844,20.6855469 15.0771484,20.2109375 13.4423828,20.2109375 C9.47851562,20.2109375 7,23.1376953 7,25.5634766 C7,26.3632812 7.43066406,26.8027344 8.55566406,26.8027344 Z M18.0478516,26.8027344 L29.078125,26.8027344 C30.4667969,26.8027344 30.9589844,26.4072266 30.9589844,25.6337891 C30.9589844,23.3662109 28.1201172,20.2373047 23.5673828,20.2373047 C19.0058594,20.2373047 16.1669922,23.3662109 16.1669922,25.6337891 C16.1669922,26.4072266 16.6591797,26.8027344 18.0478516,26.8027344 Z" id="形状" fill="#FFFFFF"></path>
            </g>
        </g>
    </g>
</svg>