<?xml version="1.0" encoding="UTF-8"?>
<svg width="22.2685547px" height="22.2685547px" viewBox="0 0 22.2685547 22.2685547" version="1.1" xmlns="http://www.w3.org/2000/svg" xmlns:xlink="http://www.w3.org/1999/xlink">
    <title>play_big</title>
    <g id="人物更新" stroke="none" stroke-width="1" fill="none" fill-rule="evenodd">
        <g id="画板" transform="translate(-453.9229, -249.1152)" fill="#934FE3" fill-rule="nonzero">
            <g id="编组-7备份" transform="translate(188, 178)">
                <g id="play_big" transform="translate(265.9229, 71.1152)">
                    <path d="M11.1396484,22.2685547 C17.2304688,22.2685547 22.2685547,17.2304688 22.2685547,11.1289062 C22.2685547,5.03808594 17.2197266,0 11.1289062,0 C5.02734375,0 0,5.03808594 0,11.1289062 C0,17.2304688 5.03808594,22.2685547 11.1396484,22.2685547 Z M11.1396484,19.9804688 C6.23046875,19.9804688 2.28808594,16.0380859 2.28808594,11.1289062 C2.28808594,6.21972656 6.21972656,2.27734375 11.1289062,2.27734375 C16.0380859,2.27734375 19.9804688,6.21972656 19.9912109,11.1289062 C19.9912109,16.0380859 16.0380859,19.9804688 11.1396484,19.9804688 Z M9.109375,15.3720703 L15.3076172,11.7412109 C15.7587891,11.4726562 15.7480469,10.8173828 15.3076172,10.5595703 L9.109375,6.90722656 C8.63671875,6.62792969 8.01367188,6.86425781 8.01367188,7.390625 L8.01367188,14.8886719 C8.01367188,15.4150391 8.60449219,15.6728516 9.109375,15.3720703 Z" id="形状"></path>
                </g>
            </g>
        </g>
    </g>
</svg>