<?xml version="1.0" encoding="UTF-8"?>
<svg width="16.1953125px" height="16.1953125px" viewBox="0 0 16.1953125 16.1953125" version="1.1" xmlns="http://www.w3.org/2000/svg" xmlns:xlink="http://www.w3.org/1999/xlink">
    <title>play_small</title>
    <g id="人物更新" stroke="none" stroke-width="1" fill="none" fill-rule="evenodd">
        <g id="画板" transform="translate(-487.3984, -396.2656)" fill="#934FE3" fill-rule="nonzero">
            <g id="编组-7备份" transform="translate(188, 178)">
                <g id="play_small" transform="translate(299.3984, 218.2656)">
                    <path d="M8.1015625,16.1953125 C12.53125,16.1953125 16.1953125,12.53125 16.1953125,8.09375 C16.1953125,3.6640625 12.5234375,0 8.09375,0 C3.65625,0 0,3.6640625 0,8.09375 C0,12.53125 3.6640625,16.1953125 8.1015625,16.1953125 Z M8.1015625,14.53125 C4.53125,14.53125 1.6640625,11.6640625 1.6640625,8.09375 C1.6640625,4.5234375 4.5234375,1.65625 8.09375,1.65625 C11.6640625,1.65625 14.53125,4.5234375 14.5390625,8.09375 C14.5390625,11.6640625 11.6640625,14.53125 8.1015625,14.53125 Z M6.625,11.1796875 L11.1328125,8.5390625 C11.4609375,8.34375 11.453125,7.8671875 11.1328125,7.6796875 L6.625,5.0234375 C6.28125,4.8203125 5.828125,4.9921875 5.828125,5.375 L5.828125,10.828125 C5.828125,11.2109375 6.2578125,11.3984375 6.625,11.1796875 Z" id="形状"></path>
                </g>
            </g>
        </g>
    </g>
</svg>