<?xml version="1.0" encoding="UTF-8"?>
<svg width="37px" height="37px" viewBox="0 0 37 37" version="1.1" xmlns="http://www.w3.org/2000/svg" xmlns:xlink="http://www.w3.org/1999/xlink">
    <title>icon-3</title>
    <g id="页面-2" stroke="none" stroke-width="1" fill="none" fill-rule="evenodd">
        <g id="ECCV-Workshop_0428" transform="translate(-474, -7269.27)" fill="#934FE3" fill-rule="nonzero">
            <g id="icon-3" transform="translate(474, 7269.27)">
                <path d="M18.5,0 C8.28370536,0 0,8.28370536 0,18.5 C0,28.7162946 8.28370536,37 18.5,37 C28.7162946,37 37,28.7162946 37,18.5 C37,8.28370536 28.7162946,0 18.5,0 Z M27.3907366,13.9452009 C27.403125,14.1392857 27.403125,14.3416295 27.403125,14.5398437 C27.403125,20.6018973 22.7863839,27.5848214 14.3498884,27.5848214 C11.7483259,27.5848214 9.33671875,26.8291295 7.30502232,25.5283482 C7.67667411,25.5696429 8.03180804,25.5861607 8.41171875,25.5861607 C10.5590402,25.5861607 12.5329241,24.859375 14.10625,23.6287946 C12.0910714,23.5875 10.3979911,22.2660714 9.81986607,20.4491071 C10.5260045,20.5523437 11.161942,20.5523437 11.8887277,20.3665179 C9.79095982,19.941183 8.21763393,18.0953125 8.21763393,15.8654018 L8.21763393,15.8075893 C8.82466518,16.1503348 9.5390625,16.3609375 10.2864955,16.3898438 C9.01049107,15.5391741 8.24241071,14.10625 8.24241071,12.5742188 C8.24241071,11.7194196 8.46540179,10.9389509 8.86595982,10.2617188 C11.1247768,13.0449777 14.5191964,14.861942 18.322433,15.0560268 C17.6741071,11.9382812 20.003125,9.41517857 22.8029018,9.41517857 C24.1243304,9.41517857 25.3136161,9.96852679 26.1518973,10.8604911 C27.1883929,10.6664062 28.1794643,10.2782366 29.0631696,9.75792411 C28.7204241,10.8191964 28.0018973,11.7152902 27.0479911,12.2810268 C27.9729911,12.1819196 28.8649554,11.9258929 29.6908482,11.5666295 C29.0672991,12.4833705 28.2868304,13.296875 27.3907366,13.9452009 L27.3907366,13.9452009 Z" id="形状"></path>
            </g>
        </g>
    </g>
</svg>